<svg width="128" height="128" viewBox="0 0 128 128" fill="none" xmlns="http://www.w3.org/2000/svg">
<g clip-path="url(#clip0_481_727)">
<path d="M41.045 8.12313C42.4395 8.32236 44.8252 8.62617 47.191 9.02461C49.5617 9.42306 51.5689 9.00967 53.2623 7.1071C54.7465 5.43862 56.395 3.89963 58.0685 2.41543C61.7093 -0.802002 66.137 -0.806982 69.7827 2.41543C71.4612 3.89465 73.1097 5.43364 74.5939 7.1071C76.2823 9.01465 78.2845 9.40313 80.6602 9.03457C83.1156 8.65107 85.581 8.23769 88.0564 8.14306C92.504 7.9787 95.4674 10.2448 96.5631 14.5829C97.1707 16.9885 97.5592 19.4539 97.9427 21.9093C98.2615 23.9364 99.1331 25.4505 101.061 26.3768C103.152 27.3829 105.194 28.4985 107.217 29.6441C111.619 32.1343 113.074 36.4575 111.032 41.1143C110.1 43.241 109.024 45.3029 107.984 47.3798C107.057 49.2226 107.057 51.0305 107.984 52.8733C109.024 54.9502 110.1 57.0122 111.032 59.1389C113.069 63.7907 111.619 68.1088 107.217 70.609C105.633 71.5105 104.024 72.3921 102.365 73.1441C100.393 74.0406 100.458 74.8873 101.947 76.3566C109.747 84.0466 117.461 91.8212 125.206 99.5659C125.734 100.094 126.287 100.602 126.775 101.165C128.528 103.167 128.11 104.925 125.53 105.597C120.958 106.788 116.356 107.868 111.734 108.845C109.936 109.228 109.064 110.1 108.696 111.898C107.789 116.281 106.763 120.639 105.682 124.982C104.816 128.468 103.043 128.936 100.478 126.381C91.2489 117.187 82.0199 107.993 72.8607 98.7242C71.4811 97.3297 70.5896 97.1454 68.9759 98.4304C65.883 100.896 61.9533 100.896 58.8604 98.4154C57.2218 97.1006 56.3353 97.3745 54.9806 98.7441C45.9409 107.893 36.8215 116.963 27.722 126.052C26.7409 127.034 25.8394 128.314 24.1609 127.855C22.4775 127.392 22.363 125.808 22.0392 124.474C21.0033 120.205 19.9872 115.927 19.0808 111.629C18.7421 110.015 17.9303 109.248 16.3365 108.904C11.8789 107.953 7.43627 106.922 3.00857 105.822C-0.477813 104.955 -0.941004 103.182 1.619 100.612C9.63767 92.5533 17.6912 84.5297 25.7248 76.4861C27.7519 74.459 27.737 74.3992 25.2318 73.0396C23.7027 72.2078 22.1239 71.4607 20.6098 70.5991C16.1971 68.0889 14.7627 63.8006 16.8146 59.1289C17.7161 57.0819 18.7371 55.0797 19.7681 53.0925C20.809 51.0903 20.7991 49.1479 19.7581 47.1457C18.7272 45.1585 17.7062 43.1563 16.8097 41.1093C14.7776 36.4575 16.2319 32.1343 20.6347 29.6441C22.5821 28.5434 24.5544 27.4626 26.5765 26.5063C28.6733 25.5152 29.6495 23.9015 29.9334 21.6603C30.2073 19.5236 30.6107 17.4019 31.054 15.2951C32.0601 10.4889 35.153 8.04345 41.03 8.1331L41.045 8.12313ZM39.5757 12.5508C37.5984 12.755 36.0893 13.6715 35.666 15.9027C35.1729 18.5076 34.6749 21.1124 34.2117 23.7222C33.7136 26.5262 32.1995 28.5932 29.7392 29.9628C27.6374 31.1333 25.5007 32.234 23.389 33.3845C20.5301 34.9384 19.8976 36.7662 21.2623 39.7745C22.1538 41.7368 23.1349 43.6593 24.1111 45.5818C25.6402 48.61 25.6551 51.6232 24.1211 54.6564C23.1848 56.5041 22.2484 58.3569 21.3718 60.2346C19.8528 63.4869 20.4654 65.2948 23.5981 66.9782C25.5704 68.0391 27.5477 69.085 29.515 70.1608C32.1547 71.6002 33.7584 73.7767 34.2565 76.775C34.6799 79.3101 35.1281 81.8402 35.6859 84.3454C36.2238 86.751 38.0019 87.8816 40.4722 87.5529C42.7732 87.2441 45.0792 86.9851 47.3603 86.5816C50.5528 86.0089 53.2423 86.8357 55.5533 89.0968C57.3314 90.84 59.1393 92.5483 60.9821 94.2218C63.0839 96.1343 64.7773 96.1343 66.889 94.2119C68.8514 92.4288 70.749 90.5711 72.6864 88.7532C74.7633 86.8058 77.2237 86.1035 80.0227 86.502C82.4034 86.8406 84.7791 87.1793 87.1599 87.508C89.9589 87.9015 91.6374 86.8108 92.2251 84.0814C92.7679 81.5712 93.1963 79.0361 93.6495 76.511C94.1476 73.7069 95.6766 71.65 98.142 70.2803C100.244 69.1149 102.385 68.0142 104.492 66.8587C107.336 65.2998 107.959 63.4669 106.589 60.4587C105.697 58.4964 104.716 56.5739 103.745 54.6514C102.216 51.6182 102.221 48.61 103.755 45.5768C104.731 43.6543 105.712 41.7318 106.604 39.7695C107.969 36.7662 107.341 34.9483 104.477 33.3795C102.515 32.3037 100.538 31.2528 98.5553 30.2069C95.816 28.7575 94.1027 26.591 93.6047 23.4682C93.2311 21.0975 92.7779 18.7317 92.2798 16.3859C91.6523 13.4473 90.0436 12.3417 87.1399 12.7451C84.9236 13.0539 82.6973 13.283 80.4959 13.6715C77.3033 14.2392 74.6139 13.4125 72.3029 11.1463C70.5298 9.40313 68.7219 7.68983 66.8791 6.02134C64.7723 4.11878 63.0839 4.12874 60.9672 6.04625C59.0646 7.7745 57.2118 9.55753 55.3541 11.3356C53.1577 13.4324 50.5778 14.1894 47.5844 13.7063C44.9697 13.283 42.3399 12.9443 39.5807 12.5508H39.5757ZM79.2707 91.1239C77.9558 91.0343 76.9298 91.2086 75.9984 91.8859C74.6786 92.8522 74.3349 93.7287 75.6847 95.0685C83.8777 103.187 92.0308 111.345 100.159 119.528C101.698 121.077 102.126 120.235 102.465 118.706C103.167 115.549 104.014 112.421 104.562 109.238C105.015 106.593 106.3 105.184 109 104.721C112.346 104.148 115.634 103.237 118.946 102.494C120.256 102.201 120.754 101.703 119.613 100.562C112.859 93.8184 106.116 87.0697 99.3721 80.3161C98.3511 79.2901 97.6987 79.32 97.4696 80.8939C97.2903 82.1241 97.096 83.3543 96.8619 84.5745C95.8509 89.7742 92.7132 92.369 87.4388 92.1001C84.6347 91.9557 81.8456 91.4476 79.2607 91.1289L79.2707 91.1239ZM26.5865 120.439C27.0397 120.041 27.5577 119.638 28.0209 119.174C31.6666 115.544 35.3024 111.903 38.9382 108.262C43.341 103.859 47.704 99.4265 52.1566 95.0785C53.5013 93.7636 53.2075 92.882 51.8777 91.8959C50.3785 90.7902 48.73 91.0392 47.0864 91.2584C44.5413 91.5971 42.0262 92.1599 39.4363 92.135C35.5216 92.0951 32.5731 90.0083 31.4525 86.2629C30.9544 84.6044 30.7353 82.8612 30.4115 81.1529C30.302 80.5901 30.3767 79.8778 29.7441 79.6587C29.0817 79.4296 28.7231 80.092 28.3297 80.4805C21.6906 87.0996 15.0714 93.7437 8.41744 100.353C7.07269 101.688 7.57075 102.216 9.12966 102.554C12.5314 103.301 15.9082 104.168 19.3248 104.825C21.591 105.264 22.7465 106.489 23.1798 108.73C23.8223 112.067 24.6142 115.374 25.421 118.676C25.5754 119.299 25.4409 120.255 26.5914 120.429L26.5865 120.439Z" fill="#DD0000"/>
<path d="M63.8754 19.9919C69.0901 19.7927 73.8813 21.257 78.4336 23.6576C79.0213 23.9664 79.599 24.3051 80.1369 24.6836C81.3023 25.5004 82.2586 26.5264 81.3621 28.0006C80.4407 29.5247 79.1209 29.3952 77.7064 28.5385C74.3346 26.5015 70.7486 25.1817 66.7691 24.7135C53.6304 23.1596 41.1193 32.3487 38.7884 45.4326C36.338 59.1838 45.044 72.1183 58.7604 75.1166C73.2339 78.2792 87.7023 67.7753 89.2662 53.0926C90.0133 46.0452 88.2402 39.7946 83.962 34.2164C82.936 32.8766 81.9747 31.4771 83.708 30.1423C85.4511 28.8025 86.6216 30.1174 87.6027 31.4422C94.9341 41.3136 96.2938 52.0368 91.0493 63.0886C85.7898 74.1753 76.5758 79.9677 64.2539 80.142C48.4357 80.3661 35.0231 68.3431 33.9075 53.2869C32.6723 36.6618 43.3556 22.796 59.3979 20.2509C60.8622 20.0168 62.3763 20.0716 63.8655 19.9919H63.8754Z" fill="#DD0000"/>
<path d="M79.0114 42.1802C79.0263 43.1862 78.4187 43.8785 77.7862 44.541C72.5267 50.0694 67.2573 55.5928 61.9929 61.1162C60.5535 62.6253 59.0792 62.6253 57.7146 61.1063C55.0002 58.0831 52.3306 55.015 49.676 51.9371C48.655 50.7517 48.2017 49.392 49.5863 48.2116C51.0357 46.9764 52.2011 47.9028 53.2072 49.0234C54.9205 50.941 56.7284 52.7887 58.2724 54.8357C59.5574 56.5441 60.424 56.305 61.7289 54.8756C65.5838 50.6471 69.5434 46.5133 73.478 42.3545C74.1603 41.6373 74.8377 40.8504 75.6644 40.3473C77.2831 39.3712 79.0213 40.3822 79.0114 42.1652V42.1802Z" fill="#DD0000"/>
</g>
<defs>
<clipPath id="clip0_481_727">
<rect width="127.836" height="128" fill="white"/>
</clipPath>
</defs>
</svg>
