<svg width="103" height="130" viewBox="0 0 103 130" fill="none" xmlns="http://www.w3.org/2000/svg">
<g clip-path="url(#clip0_481_722)">
<path d="M42.6138 130C33.4372 130 24.2606 130.01 15.084 130C11.5596 130 10.6535 129.145 10.5433 125.557C10.4532 122.693 10.5033 119.824 10.5083 116.955C10.5083 115.797 10.328 114.815 9.06145 114.314C2.72845 111.799 0.0851158 106.755 0.0550779 100.217C-0.0300296 82.6794 8.35198e-06 65.1416 0.0450652 47.6039C0.0550779 44.1226 1.1014 40.9501 4.54575 39.513C8.34554 37.9293 12.2254 37.9242 15.7349 40.4694C17.9527 42.0734 18.6636 44.4515 18.6636 47.1232C18.6485 59.348 18.6536 71.5779 18.6636 83.8027C18.6686 90.4261 21.412 93.2142 27.9152 93.2192C38.844 93.2294 49.7728 93.2091 60.7016 93.2243C69.3375 93.2344 74.9897 98.8004 75.1248 107.539C75.2199 113.525 75.1799 119.511 75.1248 125.497C75.0948 129.049 74.1236 129.99 70.6392 129.995C61.2974 130.01 51.9506 129.995 42.6088 129.995L42.6138 130ZM42.809 124.166C50.5638 124.166 58.3186 124.1 66.0734 124.206C68.3212 124.237 69.2174 123.543 69.1473 121.186C69.0121 116.637 69.1473 112.083 69.0922 107.534C69.0271 101.771 66.3237 99.1039 60.5564 99.0938C49.3823 99.0736 38.2082 99.109 27.0341 99.0786C18.5584 99.0533 12.8913 93.3356 12.8612 84.8046C12.8312 75.5347 12.7611 66.2599 12.9113 56.9951C12.9514 54.3538 11.865 53.8984 9.64218 53.9996C7.61963 54.0907 5.96253 53.8681 5.99257 56.9091C6.12274 71.4868 6.03763 86.0695 6.06266 100.652C6.07267 105.773 8.04016 108.308 13.0164 109.219C15.5046 109.674 16.4358 111.061 16.4958 113.343C16.5609 115.954 16.656 118.575 16.5108 121.175C16.3807 123.513 17.2668 124.247 19.5447 124.211C27.2995 124.1 35.0543 124.171 42.809 124.171V124.166ZM9.54205 48.2667C10.6484 47.7304 12.7811 49.1472 12.7561 46.6779C12.7311 44.4566 10.8988 44.4566 9.2617 44.4515C7.76981 44.4465 6.19282 44.5426 6.1728 46.5059C6.14276 49.1472 8.33553 47.7607 9.54706 48.2667H9.54205Z" fill="#DD0000"/>
<path d="M103 25.4566C103.101 35.7637 98.9403 43.561 89.8839 48.4945C87.4358 49.8252 87.566 52.2135 87.2956 54.4146C86.795 58.498 84.2668 61.5845 80.472 62.5459C76.5821 63.5326 72.6421 61.9741 70.4444 58.5435C68.1715 55.0066 68.9775 51.2319 69.7635 47.5128C71.2604 40.4087 75.1803 35.1818 81.6335 31.8118C84.4921 30.3192 85.4483 26.4938 84.3069 22.9013C83.4758 20.2853 80.5771 18.4485 77.5984 18.6509C74.3142 18.8736 72.1515 21.2366 71.731 25.0669C71.0952 30.8859 67.3605 34.4936 62.1439 34.3317C57.5381 34.19 53.7633 30.5114 53.4279 25.8462C52.4967 12.8219 63.7759 0.642613 76.7073 0.0303597C89.959 -0.602133 100.542 9.24451 102.47 20.1892C102.775 21.9247 102.83 23.7008 103 25.4566ZM97.0479 26.3016C97.1481 17.0874 92.6524 10.1806 84.9777 7.14464C77.5433 4.20481 69.2378 6.26927 63.811 12.5132C60.7271 16.0602 59.06 20.2043 59.2152 24.991C59.2803 26.929 60.2715 28.2446 62.214 28.3964C64.2866 28.5583 65.438 27.2984 65.8536 25.325C65.9737 24.7532 65.9237 24.146 65.9987 23.5641C66.7046 17.816 71.6359 13.0901 77.2229 12.7814C83.2055 12.4525 88.4771 16.0198 89.934 21.6768C91.4258 27.4704 90.2343 34.2153 83.9915 37.2766C77.4732 40.4745 75.3656 46.2934 74.8249 52.9877C74.6096 55.629 76.467 57.2279 78.885 56.8079C80.8074 56.474 81.3181 55.0724 81.5484 53.347C82.074 49.3547 82.845 45.5243 86.9352 43.4244C94.0792 39.756 97.2682 33.7043 97.0479 26.2965V26.3016Z" fill="#DD0000"/>
<path d="M42.7294 92.02C31.5503 91.9947 22.3236 82.6086 22.4137 71.3451C22.4988 60.0817 31.8607 50.7107 42.9346 50.7866C54.1188 50.8675 63.2603 60.2183 63.2202 71.5425C63.1802 82.8919 54.0236 92.0453 42.7294 92.02ZM42.8696 86.1556C50.9498 86.1455 57.443 79.5271 57.4179 71.3401C57.3929 63.3757 50.8246 56.7168 42.9196 56.6359C34.8945 56.5549 28.141 63.4617 28.2161 71.6639C28.2862 79.6283 34.8995 86.1657 42.8746 86.1556H42.8696Z" fill="#DD0000"/>
<path d="M87.2803 72.8581C87.2052 77.9282 83.155 81.9053 78.0987 81.885C73.0773 81.8648 68.847 77.4677 69.0022 72.4331C69.1574 67.4288 73.3276 63.3707 78.2839 63.3909C83.3603 63.4112 87.3604 67.6211 87.2803 72.853V72.8581ZM78.3239 75.9953C80.1212 75.9345 81.538 74.3457 81.4579 72.4938C81.3778 70.6621 79.8008 69.1896 78.0236 69.2858C76.2613 69.387 74.7344 71.0517 74.8145 72.7923C74.8946 74.5431 76.5517 76.0509 78.3239 75.9902V75.9953Z" fill="#DD0000"/>
</g>
<defs>
<clipPath id="clip0_481_722">
<rect width="103" height="130" fill="white"/>
</clipPath>
</defs>
</svg>
