<svg width="23" height="23" viewBox="0 0 23 23" fill="none" xmlns="http://www.w3.org/2000/svg">
<path fill-rule="evenodd" clip-rule="evenodd" d="M18.1942 16.0372C17.917 16.812 16.8153 17.453 15.9367 17.6404C15.3353 17.7665 14.5509 17.8663 11.9082 16.7847C8.94009 15.5703 4.8185 11.2445 4.8185 8.36576C4.8185 6.90027 5.6741 5.1938 7.17025 5.1938C7.89015 5.1938 8.04885 5.20766 8.28575 5.76886C8.5629 6.43003 9.2391 8.05902 9.3196 8.22601C9.65195 8.91104 8.98149 9.31206 8.49504 9.90848C8.33979 10.088 8.16385 10.2821 8.36051 10.6161C8.556 10.9433 9.2322 12.0316 10.2258 12.9052C11.5092 14.0344 12.5499 14.3949 12.9225 14.5483C13.1997 14.6619 13.5309 14.6354 13.7333 14.4219C13.9898 14.1481 14.3083 13.6938 14.6326 13.2462C14.8614 12.9259 15.1524 12.8859 15.4572 12.9995C15.663 13.0699 18.2792 14.2698 18.3896 14.4618C18.4713 14.6015 18.4713 15.2624 18.1942 16.0372ZM11.5023 0H11.4965C5.15659 0 0 5.09398 0 11.3569C0 13.8403 0.810758 16.1443 2.18961 18.013L0.756705 22.2331L5.17616 20.8384C6.99431 22.0267 9.16435 22.7139 11.5023 22.7139C17.8422 22.7139 23 17.6199 23 11.3569C23 5.09398 17.8422 0 11.5023 0Z" fill="white"/>
</svg>
