<svg width="128" height="128" viewBox="0 0 128 128" fill="none" xmlns="http://www.w3.org/2000/svg">
<g clip-path="url(#clip0_481_716)">
<path d="M63.9945 127.995C45.5374 127.995 27.0856 127.995 8.62849 127.995C1.84078 127.995 -0.494197 125.076 0.0868317 118.317C1.35206 103.496 6.93971 90.7149 17.5448 80.2394C24.6964 73.1762 33.1892 68.3427 42.9037 65.6682C43.6314 65.4675 44.7934 65.6519 44.9672 64.7026C45.1247 63.8129 44.0658 63.4549 43.463 62.9503C36.7079 57.2705 31.5873 50.4731 29.779 41.7011C25.9779 23.2674 38.3098 4.91499 57.0873 0.759538C77.7872 -3.81906 98.7313 12.895 99.0843 34.09C99.2798 46.0139 93.7519 54.9703 85.2211 62.5652C84.4988 63.2053 83.1359 63.6068 83.2771 64.6321C83.4345 65.7821 84.8898 65.5434 85.7749 65.7876C108.973 72.2106 126.089 92.9825 127.853 116.917C128.554 126.427 127.088 127.989 117.465 127.989C99.6436 127.989 81.8218 127.989 64 127.989L63.9945 127.995ZM64.0597 121.333C76.4568 121.333 88.8484 121.333 101.245 121.333C107.126 121.333 113.007 121.284 118.888 121.355C120.87 121.382 121.772 120.671 121.538 118.658C121.457 117.942 121.511 117.21 121.451 116.494C119.475 94.572 102.179 75.4764 80.486 71.1039C73.3996 69.6772 66.2589 70.1383 59.1291 70.0298C52.1676 69.9213 45.3853 71.0334 39.0103 73.8055C19.8581 82.1273 9.06834 96.7473 6.74965 117.492C6.33153 121.224 6.61933 121.327 10.3227 121.327C28.2368 121.327 46.151 121.327 64.0651 121.327L64.0597 121.333ZM64.228 6.49363C48.3611 6.46109 35.5893 19.0088 35.4753 34.6488C35.3612 49.4261 46.6397 63.7478 64.3746 63.5471C82.0987 63.3464 92.6278 49.2308 92.7093 35.1804C92.7962 19.2204 80.171 6.53161 64.2334 6.49363H64.228Z" fill="#DD0000"/>
</g>
<defs>
<clipPath id="clip0_481_716">
<rect width="128" height="128" fill="white"/>
</clipPath>
</defs>
</svg>
