<svg width="137" height="128" viewBox="0 0 137 128" fill="none" xmlns="http://www.w3.org/2000/svg">
<g clip-path="url(#clip0_481_718)">
<path d="M68.4655 97.8682C86.206 97.8682 103.947 97.8736 121.682 97.8682C128.612 97.8682 130.933 95.5316 130.938 88.5748C130.943 72.3459 130.938 56.1117 130.943 39.8829C130.943 38.9088 130.89 37.9135 131.066 36.966C131.321 35.5875 132.311 34.7837 133.684 34.7358C135.185 34.6826 136.229 35.5023 136.548 36.9926C136.713 37.7591 136.66 38.5788 136.66 39.3772C136.66 56.495 136.676 73.6127 136.66 90.7305C136.649 98.4431 131.539 103.569 123.848 103.579C110.1 103.601 96.351 103.579 82.6025 103.606C81.7722 103.606 80.6331 103.127 80.1701 104.069C79.8028 104.814 80.681 105.496 81.0962 106.145C83.9013 110.563 86.8128 114.917 89.5114 119.393C90.6717 121.315 92.0876 122.092 94.2858 121.921C96.2233 121.772 98.1874 121.895 100.135 121.9C102.137 121.911 103.803 122.645 103.867 124.817C103.936 127.186 102.142 127.925 100.077 127.957C96.532 128.005 92.9818 127.984 89.4315 127.984C72.3138 127.984 55.196 127.984 38.0782 127.984C34.4375 127.984 32.7662 127.026 32.7289 124.977C32.6917 122.88 34.4216 121.448 37.9505 121.996C43.9226 122.922 47.3291 120.378 49.8361 115.289C51.4701 111.968 53.7908 108.987 55.7709 105.831C56.1275 105.267 56.8993 104.697 56.4628 103.968C56.0423 103.271 55.1641 103.595 54.4881 103.595C40.7396 103.579 26.9911 103.595 13.2426 103.579C5.00306 103.569 0.010377 98.5868 0.00505434 90.3526C-0.00559103 67.7365 -0.00559103 45.1151 0.00505434 22.499C0.00505434 14.2382 5.1308 9.09112 13.4715 9.07515C31.8294 9.03789 50.1927 9.05918 68.5506 9.07515C69.514 9.07515 70.5094 9.14967 71.4302 9.4158C72.6438 9.76177 73.3144 10.6773 73.3517 11.992C73.3943 13.4185 72.7396 14.4617 71.4036 14.813C70.3124 15.1004 69.1308 15.143 67.9917 15.1483C49.9851 15.1696 31.9838 15.159 13.9771 15.1643C8.14877 15.1643 5.73227 17.5435 5.72694 23.3825C5.71098 45.3812 5.70565 67.3745 5.72694 89.3732C5.73227 95.2495 8.31909 97.8469 14.1794 97.8576C32.2712 97.8842 50.3683 97.8682 68.4601 97.8682H68.4655ZM68.2153 121.895C72.5533 121.895 76.8966 121.916 81.2346 121.874C81.9798 121.868 83.0337 122.31 83.4116 121.469C83.7576 120.708 82.8687 120.059 82.4588 119.409C80.1434 115.736 77.4821 112.25 75.55 108.391C73.4848 104.266 70.5466 102.882 66.182 103.537C64.9365 103.723 64.0317 104.027 63.345 105.107C60.1674 110.116 56.9738 115.119 53.7216 120.08C52.5666 121.842 53.5034 121.911 54.9299 121.9C59.3583 121.868 63.7868 121.89 68.2153 121.89V121.895Z" fill="#DD0000"/>
<path d="M68.0024 84.3646C62.6797 84.3646 57.357 84.3753 52.0396 84.3646C47.5579 84.354 46.8447 83.6461 46.8766 79.0526C46.9032 75.167 46.5466 71.2602 47.8879 67.4598C49.4794 62.9515 52.1301 59.2682 56.1221 56.6654C57.7242 55.6221 57.7934 54.9887 56.5799 53.4771C49.7083 44.9129 53.0775 32.7825 63.18 29.3387C69.365 27.2309 76.4495 29.4771 80.2658 34.7519C84.1354 40.1012 84.2472 47.4624 80.1008 52.5829C78.2751 54.8344 78.6158 55.7605 80.8194 57.3573C86.4082 61.4238 89.0642 67.1724 89.2452 74.0546C89.2984 76.1837 89.2984 78.3127 89.2399 80.4418C89.16 83.1936 88.0849 84.3061 85.3064 84.338C79.5419 84.3966 73.7775 84.354 68.013 84.354V84.3646H68.0024ZM67.997 78.2702C71.015 78.2702 74.0276 78.2702 77.0456 78.2702C83.5819 78.2702 84.2685 77.4079 82.9059 70.9142C82.8686 70.7385 82.8101 70.5736 82.7622 70.4032C80.8194 62.7173 73.1228 57.6714 65.5859 59.1457C57.1547 60.7958 51.864 68.0453 52.9072 76.3806C53.1254 78.1318 54.1527 78.2702 55.494 78.2702C59.6617 78.2595 63.8294 78.2702 67.997 78.2702ZM68.0183 52.7053C73.0962 52.7159 77.1733 48.692 77.1946 43.6461C77.2159 38.7279 73.0536 34.5336 68.0396 34.4272C63.164 34.326 58.9431 38.5789 58.9059 43.6248C58.8686 48.7186 62.8553 52.6946 68.013 52.7L68.0183 52.7053Z" fill="#DD0000"/>
<path d="M101.839 0.01064C106.891 0.01064 111.942 -0.0159734 116.988 0.0159627C122.113 0.0478988 124.269 2.09181 124.386 7.20691C124.429 9.05389 124.897 9.39986 126.521 8.52694C128.389 7.52628 130.31 6.57884 132.28 5.7964C134.797 4.79574 136.581 5.91882 136.623 8.60146C136.714 14.3606 136.708 20.1198 136.623 25.8789C136.581 28.5296 134.734 29.7112 132.28 28.6999C130.236 27.8589 128.288 26.7838 126.329 25.7512C125.084 25.0911 124.493 25.0539 124.392 26.7944C124.03 33.006 122.475 34.3846 116.163 34.3846C106.241 34.3846 96.3144 34.3952 86.3929 34.3792C81.4108 34.3686 79.0422 32.1064 78.9731 27.0978C78.8879 20.6307 78.8879 14.1637 78.9731 7.6966C79.0422 2.35795 81.5173 0.0425761 86.9518 0.0212854C91.9125 -5.36011e-06 96.8733 0.0212854 101.834 0.0212854L101.839 0.01064ZM101.866 6.11044C97.0755 6.11044 92.2851 6.15834 87.4947 6.08383C85.6903 6.05721 84.9558 6.66932 84.977 8.54291C85.0569 14.3074 85.0516 20.0718 84.977 25.8363C84.9558 27.6673 85.653 28.3752 87.4734 28.3646C97.0542 28.322 106.63 28.3273 116.211 28.3646C118.015 28.3699 118.739 27.6993 118.718 25.847C118.643 20.0825 118.638 14.318 118.718 8.55355C118.744 6.69061 118.042 6.04657 116.221 6.0785C111.431 6.15302 106.64 6.10512 101.85 6.10512L101.866 6.11044ZM131.056 17.1018C130.518 15.9361 131.806 14.2914 130.129 13.6261C129.155 13.2375 124.546 16.2608 124.514 17.0486C124.477 17.996 128.463 21.0778 129.906 20.7638C132.093 20.2901 130.31 18.2462 131.056 17.1018Z" fill="#DD0000"/>
</g>
<defs>
<clipPath id="clip0_481_718">
<rect width="136.687" height="128" fill="white"/>
</clipPath>
</defs>
</svg>
